<mxfile host="Electron" modified="2024-04-25T00:57:40.581Z" agent="Mozilla/5.0 (X11; Linux x86_64) AppleWebKit/537.36 (KHTML, like Gecko) draw.io/24.2.5 Chrome/120.0.6099.109 Electron/28.1.0 Safari/537.36" etag="HY5ejWtftg8LYywc24Qi" version="24.2.5" type="device">
  <diagram name="Page-1" id="UVpiBM_GTR-3DpaoDyki">
    <mxGraphModel dx="1434" dy="835" grid="1" gridSize="10" guides="1" tooltips="1" connect="1" arrows="1" fold="1" page="1" pageScale="1" pageWidth="850" pageHeight="1100" math="0" shadow="0">
      <root>
        <mxCell id="0" />
        <mxCell id="1" parent="0" />
        <mxCell id="c97M9kAq8v7TbU-gE32T-48" value="" style="group;fillColor=#f8cecc;fontColor=#264653;strokeColor=#b85450;" parent="1" vertex="1" connectable="0">
          <mxGeometry x="120" y="310" width="1280" height="40" as="geometry" />
        </mxCell>
        <mxCell id="c97M9kAq8v7TbU-gE32T-1" value="" style="rounded=0;whiteSpace=wrap;html=1;shadow=0;strokeColor=#666666;strokeWidth=2;fontFamily=Ubuntu;fontSize=22;fontColor=#333333;fontStyle=0;fillColor=#f5f5f5;" parent="c97M9kAq8v7TbU-gE32T-48" vertex="1">
          <mxGeometry width="40" height="40" as="geometry" />
        </mxCell>
        <mxCell id="c97M9kAq8v7TbU-gE32T-2" value="" style="rounded=0;whiteSpace=wrap;html=1;shadow=0;strokeColor=#666666;strokeWidth=2;fontFamily=Ubuntu;fontSize=22;fontColor=#333333;fontStyle=0;fillColor=#f5f5f5;" parent="c97M9kAq8v7TbU-gE32T-48" vertex="1">
          <mxGeometry x="40" width="40" height="40" as="geometry" />
        </mxCell>
        <mxCell id="c97M9kAq8v7TbU-gE32T-3" value="" style="rounded=0;whiteSpace=wrap;html=1;shadow=0;strokeColor=#666666;strokeWidth=2;fontFamily=Ubuntu;fontSize=22;fontColor=#333333;fontStyle=0;fillColor=#f5f5f5;" parent="c97M9kAq8v7TbU-gE32T-48" vertex="1">
          <mxGeometry x="80" width="40" height="40" as="geometry" />
        </mxCell>
        <mxCell id="c97M9kAq8v7TbU-gE32T-4" value="" style="rounded=0;whiteSpace=wrap;html=1;shadow=0;strokeColor=#666666;strokeWidth=2;fontFamily=Ubuntu;fontSize=22;fontColor=#333333;fontStyle=0;fillColor=#f5f5f5;" parent="c97M9kAq8v7TbU-gE32T-48" vertex="1">
          <mxGeometry x="120" width="40" height="40" as="geometry" />
        </mxCell>
        <mxCell id="c97M9kAq8v7TbU-gE32T-5" value="" style="rounded=0;whiteSpace=wrap;html=1;shadow=0;strokeColor=#666666;strokeWidth=2;fontFamily=Ubuntu;fontSize=22;fontColor=#333333;fontStyle=0;fillColor=#f5f5f5;" parent="c97M9kAq8v7TbU-gE32T-48" vertex="1">
          <mxGeometry x="160" width="40" height="40" as="geometry" />
        </mxCell>
        <mxCell id="c97M9kAq8v7TbU-gE32T-6" value="" style="rounded=0;whiteSpace=wrap;html=1;shadow=0;strokeColor=#666666;strokeWidth=2;fontFamily=Ubuntu;fontSize=22;fontColor=#333333;fontStyle=0;fillColor=#f5f5f5;" parent="c97M9kAq8v7TbU-gE32T-48" vertex="1">
          <mxGeometry x="200" width="40" height="40" as="geometry" />
        </mxCell>
        <mxCell id="c97M9kAq8v7TbU-gE32T-7" value="" style="rounded=0;whiteSpace=wrap;html=1;shadow=0;strokeColor=#666666;strokeWidth=2;fontFamily=Ubuntu;fontSize=22;fontColor=#333333;fontStyle=0;fillColor=#f5f5f5;" parent="c97M9kAq8v7TbU-gE32T-48" vertex="1">
          <mxGeometry x="240" width="40" height="40" as="geometry" />
        </mxCell>
        <mxCell id="c97M9kAq8v7TbU-gE32T-8" value="" style="rounded=0;whiteSpace=wrap;html=1;shadow=0;strokeColor=#666666;strokeWidth=2;fontFamily=Ubuntu;fontSize=22;fontColor=#333333;fontStyle=0;fillColor=#f5f5f5;" parent="c97M9kAq8v7TbU-gE32T-48" vertex="1">
          <mxGeometry x="280" width="40" height="40" as="geometry" />
        </mxCell>
        <mxCell id="c97M9kAq8v7TbU-gE32T-9" value="" style="rounded=0;whiteSpace=wrap;html=1;shadow=0;strokeColor=#666666;strokeWidth=2;fontFamily=Ubuntu;fontSize=22;fontColor=#333333;fontStyle=0;fillColor=#f5f5f5;" parent="c97M9kAq8v7TbU-gE32T-48" vertex="1">
          <mxGeometry x="320" width="40" height="40" as="geometry" />
        </mxCell>
        <mxCell id="c97M9kAq8v7TbU-gE32T-10" value="" style="rounded=0;whiteSpace=wrap;html=1;shadow=0;strokeColor=#666666;strokeWidth=2;fontFamily=Ubuntu;fontSize=22;fontColor=#333333;fontStyle=0;fillColor=#f5f5f5;" parent="c97M9kAq8v7TbU-gE32T-48" vertex="1">
          <mxGeometry x="360" width="40" height="40" as="geometry" />
        </mxCell>
        <mxCell id="c97M9kAq8v7TbU-gE32T-11" value="" style="rounded=0;whiteSpace=wrap;html=1;shadow=0;strokeColor=#666666;strokeWidth=2;fontFamily=Ubuntu;fontSize=22;fontColor=#333333;fontStyle=0;fillColor=#f5f5f5;" parent="c97M9kAq8v7TbU-gE32T-48" vertex="1">
          <mxGeometry x="400" width="40" height="40" as="geometry" />
        </mxCell>
        <mxCell id="c97M9kAq8v7TbU-gE32T-12" value="" style="rounded=0;whiteSpace=wrap;html=1;shadow=0;strokeColor=#666666;strokeWidth=2;fontFamily=Ubuntu;fontSize=22;fontColor=#333333;fontStyle=0;fillColor=#f5f5f5;" parent="c97M9kAq8v7TbU-gE32T-48" vertex="1">
          <mxGeometry x="440" width="40" height="40" as="geometry" />
        </mxCell>
        <mxCell id="c97M9kAq8v7TbU-gE32T-13" value="" style="rounded=0;whiteSpace=wrap;html=1;shadow=0;strokeColor=#666666;strokeWidth=2;fontFamily=Ubuntu;fontSize=22;fontColor=#333333;fontStyle=0;fillColor=#f5f5f5;" parent="c97M9kAq8v7TbU-gE32T-48" vertex="1">
          <mxGeometry x="480" width="40" height="40" as="geometry" />
        </mxCell>
        <mxCell id="c97M9kAq8v7TbU-gE32T-14" value="" style="rounded=0;whiteSpace=wrap;html=1;shadow=0;strokeColor=#666666;strokeWidth=2;fontFamily=Ubuntu;fontSize=22;fontColor=#333333;fontStyle=0;fillColor=#f5f5f5;" parent="c97M9kAq8v7TbU-gE32T-48" vertex="1">
          <mxGeometry x="520" width="40" height="40" as="geometry" />
        </mxCell>
        <mxCell id="c97M9kAq8v7TbU-gE32T-15" value="" style="rounded=0;whiteSpace=wrap;html=1;shadow=0;strokeColor=#666666;strokeWidth=2;fontFamily=Ubuntu;fontSize=22;fontColor=#333333;fontStyle=0;fillColor=#f5f5f5;" parent="c97M9kAq8v7TbU-gE32T-48" vertex="1">
          <mxGeometry x="560" width="40" height="40" as="geometry" />
        </mxCell>
        <mxCell id="c97M9kAq8v7TbU-gE32T-16" value="" style="rounded=0;whiteSpace=wrap;html=1;shadow=0;strokeColor=#666666;strokeWidth=2;fontFamily=Ubuntu;fontSize=22;fontColor=#333333;fontStyle=0;fillColor=#f5f5f5;" parent="c97M9kAq8v7TbU-gE32T-48" vertex="1">
          <mxGeometry x="600" width="40" height="40" as="geometry" />
        </mxCell>
        <mxCell id="c97M9kAq8v7TbU-gE32T-32" value="" style="rounded=0;whiteSpace=wrap;html=1;shadow=0;strokeColor=#666666;strokeWidth=2;fontFamily=Ubuntu;fontSize=22;fontColor=#333333;fontStyle=0;fillColor=#f5f5f5;" parent="c97M9kAq8v7TbU-gE32T-48" vertex="1">
          <mxGeometry x="640" width="40" height="40" as="geometry" />
        </mxCell>
        <mxCell id="c97M9kAq8v7TbU-gE32T-33" value="" style="rounded=0;whiteSpace=wrap;html=1;shadow=0;strokeColor=#666666;strokeWidth=2;fontFamily=Ubuntu;fontSize=22;fontColor=#333333;fontStyle=0;fillColor=#f5f5f5;" parent="c97M9kAq8v7TbU-gE32T-48" vertex="1">
          <mxGeometry x="680" width="40" height="40" as="geometry" />
        </mxCell>
        <mxCell id="c97M9kAq8v7TbU-gE32T-34" value="" style="rounded=0;whiteSpace=wrap;html=1;shadow=0;strokeColor=#666666;strokeWidth=2;fontFamily=Ubuntu;fontSize=22;fontColor=#333333;fontStyle=0;fillColor=#f5f5f5;" parent="c97M9kAq8v7TbU-gE32T-48" vertex="1">
          <mxGeometry x="720" width="40" height="40" as="geometry" />
        </mxCell>
        <mxCell id="c97M9kAq8v7TbU-gE32T-35" value="" style="rounded=0;whiteSpace=wrap;html=1;shadow=0;strokeColor=#666666;strokeWidth=2;fontFamily=Ubuntu;fontSize=22;fontColor=#333333;fontStyle=0;fillColor=#f5f5f5;" parent="c97M9kAq8v7TbU-gE32T-48" vertex="1">
          <mxGeometry x="760" width="40" height="40" as="geometry" />
        </mxCell>
        <mxCell id="c97M9kAq8v7TbU-gE32T-36" value="" style="rounded=0;whiteSpace=wrap;html=1;shadow=0;strokeColor=#666666;strokeWidth=2;fontFamily=Ubuntu;fontSize=22;fontColor=#333333;fontStyle=0;fillColor=#f5f5f5;" parent="c97M9kAq8v7TbU-gE32T-48" vertex="1">
          <mxGeometry x="800" width="40" height="40" as="geometry" />
        </mxCell>
        <mxCell id="c97M9kAq8v7TbU-gE32T-37" value="" style="rounded=0;whiteSpace=wrap;html=1;shadow=0;strokeColor=#666666;strokeWidth=2;fontFamily=Ubuntu;fontSize=22;fontColor=#333333;fontStyle=0;fillColor=#f5f5f5;" parent="c97M9kAq8v7TbU-gE32T-48" vertex="1">
          <mxGeometry x="840" width="40" height="40" as="geometry" />
        </mxCell>
        <mxCell id="c97M9kAq8v7TbU-gE32T-38" value="" style="rounded=0;whiteSpace=wrap;html=1;shadow=0;strokeColor=#666666;strokeWidth=2;fontFamily=Ubuntu;fontSize=22;fontColor=#333333;fontStyle=0;fillColor=#f5f5f5;" parent="c97M9kAq8v7TbU-gE32T-48" vertex="1">
          <mxGeometry x="880" width="40" height="40" as="geometry" />
        </mxCell>
        <mxCell id="c97M9kAq8v7TbU-gE32T-39" value="" style="rounded=0;whiteSpace=wrap;html=1;shadow=0;strokeColor=#666666;strokeWidth=2;fontFamily=Ubuntu;fontSize=22;fontColor=#333333;fontStyle=0;fillColor=#f5f5f5;" parent="c97M9kAq8v7TbU-gE32T-48" vertex="1">
          <mxGeometry x="920" width="40" height="40" as="geometry" />
        </mxCell>
        <mxCell id="c97M9kAq8v7TbU-gE32T-40" value="" style="rounded=0;whiteSpace=wrap;html=1;shadow=0;strokeColor=#666666;strokeWidth=2;fontFamily=Ubuntu;fontSize=22;fontColor=#333333;fontStyle=0;fillColor=#f5f5f5;" parent="c97M9kAq8v7TbU-gE32T-48" vertex="1">
          <mxGeometry x="960" width="40" height="40" as="geometry" />
        </mxCell>
        <mxCell id="c97M9kAq8v7TbU-gE32T-41" value="" style="rounded=0;whiteSpace=wrap;html=1;shadow=0;strokeColor=#666666;strokeWidth=2;fontFamily=Ubuntu;fontSize=22;fontColor=#333333;fontStyle=0;fillColor=#f5f5f5;" parent="c97M9kAq8v7TbU-gE32T-48" vertex="1">
          <mxGeometry x="1000" width="40" height="40" as="geometry" />
        </mxCell>
        <mxCell id="c97M9kAq8v7TbU-gE32T-42" value="" style="rounded=0;whiteSpace=wrap;html=1;shadow=0;strokeColor=#666666;strokeWidth=2;fontFamily=Ubuntu;fontSize=22;fontColor=#333333;fontStyle=0;fillColor=#f5f5f5;" parent="c97M9kAq8v7TbU-gE32T-48" vertex="1">
          <mxGeometry x="1040" width="40" height="40" as="geometry" />
        </mxCell>
        <mxCell id="c97M9kAq8v7TbU-gE32T-43" value="" style="rounded=0;whiteSpace=wrap;html=1;shadow=0;strokeColor=#666666;strokeWidth=2;fontFamily=Ubuntu;fontSize=22;fontColor=#333333;fontStyle=0;fillColor=#f5f5f5;" parent="c97M9kAq8v7TbU-gE32T-48" vertex="1">
          <mxGeometry x="1080" width="40" height="40" as="geometry" />
        </mxCell>
        <mxCell id="c97M9kAq8v7TbU-gE32T-44" value="1" style="rounded=0;whiteSpace=wrap;html=1;shadow=0;strokeColor=#82b366;strokeWidth=2;fontFamily=Ubuntu;fontSize=22;fontColor=#264653;fontStyle=0;fillColor=#d5e8d4;" parent="c97M9kAq8v7TbU-gE32T-48" vertex="1">
          <mxGeometry x="1120" width="40" height="40" as="geometry" />
        </mxCell>
        <mxCell id="c97M9kAq8v7TbU-gE32T-45" value="0" style="rounded=0;whiteSpace=wrap;html=1;shadow=0;strokeColor=#666666;strokeWidth=2;fontFamily=Ubuntu;fontSize=22;fontColor=#333333;fontStyle=0;fillColor=#f5f5f5;" parent="c97M9kAq8v7TbU-gE32T-48" vertex="1">
          <mxGeometry x="1160" width="40" height="40" as="geometry" />
        </mxCell>
        <mxCell id="c97M9kAq8v7TbU-gE32T-46" value="1" style="rounded=0;whiteSpace=wrap;html=1;shadow=0;strokeColor=#82b366;strokeWidth=2;fontFamily=Ubuntu;fontSize=22;fontColor=#264653;fontStyle=0;fillColor=#d5e8d4;" parent="c97M9kAq8v7TbU-gE32T-48" vertex="1">
          <mxGeometry x="1200" width="40" height="40" as="geometry" />
        </mxCell>
        <mxCell id="c97M9kAq8v7TbU-gE32T-47" value="1" style="rounded=0;whiteSpace=wrap;html=1;shadow=0;strokeColor=#b85450;strokeWidth=2;fontFamily=Ubuntu;fontSize=22;fontColor=#264653;fontStyle=0;fillColor=#f8cecc;" parent="c97M9kAq8v7TbU-gE32T-48" vertex="1">
          <mxGeometry x="1240" width="40" height="40" as="geometry" />
        </mxCell>
        <mxCell id="c97M9kAq8v7TbU-gE32T-49" value="" style="group;fillColor=#d5e8d4;fontColor=#264653;strokeColor=#82b366;" parent="1" vertex="1" connectable="0">
          <mxGeometry x="120" y="440" width="1280" height="40" as="geometry" />
        </mxCell>
        <mxCell id="c97M9kAq8v7TbU-gE32T-50" value="" style="rounded=0;whiteSpace=wrap;html=1;shadow=0;strokeColor=#666666;strokeWidth=2;fontFamily=Ubuntu;fontSize=22;fontColor=#333333;fontStyle=0;fillColor=#f5f5f5;" parent="c97M9kAq8v7TbU-gE32T-49" vertex="1">
          <mxGeometry width="40" height="40" as="geometry" />
        </mxCell>
        <mxCell id="c97M9kAq8v7TbU-gE32T-51" value="" style="rounded=0;whiteSpace=wrap;html=1;shadow=0;strokeColor=#666666;strokeWidth=2;fontFamily=Ubuntu;fontSize=22;fontColor=#333333;fontStyle=0;fillColor=#f5f5f5;" parent="c97M9kAq8v7TbU-gE32T-49" vertex="1">
          <mxGeometry x="40" width="40" height="40" as="geometry" />
        </mxCell>
        <mxCell id="c97M9kAq8v7TbU-gE32T-52" value="" style="rounded=0;whiteSpace=wrap;html=1;shadow=0;strokeColor=#666666;strokeWidth=2;fontFamily=Ubuntu;fontSize=22;fontColor=#333333;fontStyle=0;fillColor=#f5f5f5;" parent="c97M9kAq8v7TbU-gE32T-49" vertex="1">
          <mxGeometry x="80" width="40" height="40" as="geometry" />
        </mxCell>
        <mxCell id="c97M9kAq8v7TbU-gE32T-53" value="" style="rounded=0;whiteSpace=wrap;html=1;shadow=0;strokeColor=#666666;strokeWidth=2;fontFamily=Ubuntu;fontSize=22;fontColor=#333333;fontStyle=0;fillColor=#f5f5f5;" parent="c97M9kAq8v7TbU-gE32T-49" vertex="1">
          <mxGeometry x="120" width="40" height="40" as="geometry" />
        </mxCell>
        <mxCell id="c97M9kAq8v7TbU-gE32T-54" value="" style="rounded=0;whiteSpace=wrap;html=1;shadow=0;strokeColor=#666666;strokeWidth=2;fontFamily=Ubuntu;fontSize=22;fontColor=#333333;fontStyle=0;fillColor=#f5f5f5;" parent="c97M9kAq8v7TbU-gE32T-49" vertex="1">
          <mxGeometry x="160" width="40" height="40" as="geometry" />
        </mxCell>
        <mxCell id="c97M9kAq8v7TbU-gE32T-55" value="" style="rounded=0;whiteSpace=wrap;html=1;shadow=0;strokeColor=#666666;strokeWidth=2;fontFamily=Ubuntu;fontSize=22;fontColor=#333333;fontStyle=0;fillColor=#f5f5f5;" parent="c97M9kAq8v7TbU-gE32T-49" vertex="1">
          <mxGeometry x="200" width="40" height="40" as="geometry" />
        </mxCell>
        <mxCell id="c97M9kAq8v7TbU-gE32T-56" value="" style="rounded=0;whiteSpace=wrap;html=1;shadow=0;strokeColor=#666666;strokeWidth=2;fontFamily=Ubuntu;fontSize=22;fontColor=#333333;fontStyle=0;fillColor=#f5f5f5;" parent="c97M9kAq8v7TbU-gE32T-49" vertex="1">
          <mxGeometry x="240" width="40" height="40" as="geometry" />
        </mxCell>
        <mxCell id="c97M9kAq8v7TbU-gE32T-57" value="" style="rounded=0;whiteSpace=wrap;html=1;shadow=0;strokeColor=#666666;strokeWidth=2;fontFamily=Ubuntu;fontSize=22;fontColor=#333333;fontStyle=0;fillColor=#f5f5f5;" parent="c97M9kAq8v7TbU-gE32T-49" vertex="1">
          <mxGeometry x="280" width="40" height="40" as="geometry" />
        </mxCell>
        <mxCell id="c97M9kAq8v7TbU-gE32T-58" value="" style="rounded=0;whiteSpace=wrap;html=1;shadow=0;strokeColor=#666666;strokeWidth=2;fontFamily=Ubuntu;fontSize=22;fontColor=#333333;fontStyle=0;fillColor=#f5f5f5;" parent="c97M9kAq8v7TbU-gE32T-49" vertex="1">
          <mxGeometry x="320" width="40" height="40" as="geometry" />
        </mxCell>
        <mxCell id="c97M9kAq8v7TbU-gE32T-59" value="" style="rounded=0;whiteSpace=wrap;html=1;shadow=0;strokeColor=#666666;strokeWidth=2;fontFamily=Ubuntu;fontSize=22;fontColor=#333333;fontStyle=0;fillColor=#f5f5f5;" parent="c97M9kAq8v7TbU-gE32T-49" vertex="1">
          <mxGeometry x="360" width="40" height="40" as="geometry" />
        </mxCell>
        <mxCell id="c97M9kAq8v7TbU-gE32T-60" value="" style="rounded=0;whiteSpace=wrap;html=1;shadow=0;strokeColor=#666666;strokeWidth=2;fontFamily=Ubuntu;fontSize=22;fontColor=#333333;fontStyle=0;fillColor=#f5f5f5;" parent="c97M9kAq8v7TbU-gE32T-49" vertex="1">
          <mxGeometry x="400" width="40" height="40" as="geometry" />
        </mxCell>
        <mxCell id="c97M9kAq8v7TbU-gE32T-61" value="" style="rounded=0;whiteSpace=wrap;html=1;shadow=0;strokeColor=#666666;strokeWidth=2;fontFamily=Ubuntu;fontSize=22;fontColor=#333333;fontStyle=0;fillColor=#f5f5f5;" parent="c97M9kAq8v7TbU-gE32T-49" vertex="1">
          <mxGeometry x="440" width="40" height="40" as="geometry" />
        </mxCell>
        <mxCell id="c97M9kAq8v7TbU-gE32T-62" value="" style="rounded=0;whiteSpace=wrap;html=1;shadow=0;strokeColor=#666666;strokeWidth=2;fontFamily=Ubuntu;fontSize=22;fontColor=#333333;fontStyle=0;fillColor=#f5f5f5;" parent="c97M9kAq8v7TbU-gE32T-49" vertex="1">
          <mxGeometry x="480" width="40" height="40" as="geometry" />
        </mxCell>
        <mxCell id="c97M9kAq8v7TbU-gE32T-63" value="" style="rounded=0;whiteSpace=wrap;html=1;shadow=0;strokeColor=#666666;strokeWidth=2;fontFamily=Ubuntu;fontSize=22;fontColor=#333333;fontStyle=0;fillColor=#f5f5f5;" parent="c97M9kAq8v7TbU-gE32T-49" vertex="1">
          <mxGeometry x="520" width="40" height="40" as="geometry" />
        </mxCell>
        <mxCell id="c97M9kAq8v7TbU-gE32T-64" value="" style="rounded=0;whiteSpace=wrap;html=1;shadow=0;strokeColor=#666666;strokeWidth=2;fontFamily=Ubuntu;fontSize=22;fontColor=#333333;fontStyle=0;fillColor=#f5f5f5;" parent="c97M9kAq8v7TbU-gE32T-49" vertex="1">
          <mxGeometry x="560" width="40" height="40" as="geometry" />
        </mxCell>
        <mxCell id="c97M9kAq8v7TbU-gE32T-65" value="" style="rounded=0;whiteSpace=wrap;html=1;shadow=0;strokeColor=#666666;strokeWidth=2;fontFamily=Ubuntu;fontSize=22;fontColor=#333333;fontStyle=0;fillColor=#f5f5f5;" parent="c97M9kAq8v7TbU-gE32T-49" vertex="1">
          <mxGeometry x="600" width="40" height="40" as="geometry" />
        </mxCell>
        <mxCell id="c97M9kAq8v7TbU-gE32T-66" value="" style="rounded=0;whiteSpace=wrap;html=1;shadow=0;strokeColor=#666666;strokeWidth=2;fontFamily=Ubuntu;fontSize=22;fontColor=#333333;fontStyle=0;fillColor=#f5f5f5;" parent="c97M9kAq8v7TbU-gE32T-49" vertex="1">
          <mxGeometry x="640" width="40" height="40" as="geometry" />
        </mxCell>
        <mxCell id="c97M9kAq8v7TbU-gE32T-67" value="" style="rounded=0;whiteSpace=wrap;html=1;shadow=0;strokeColor=#666666;strokeWidth=2;fontFamily=Ubuntu;fontSize=22;fontColor=#333333;fontStyle=0;fillColor=#f5f5f5;" parent="c97M9kAq8v7TbU-gE32T-49" vertex="1">
          <mxGeometry x="680" width="40" height="40" as="geometry" />
        </mxCell>
        <mxCell id="c97M9kAq8v7TbU-gE32T-68" value="" style="rounded=0;whiteSpace=wrap;html=1;shadow=0;strokeColor=#666666;strokeWidth=2;fontFamily=Ubuntu;fontSize=22;fontColor=#333333;fontStyle=0;fillColor=#f5f5f5;" parent="c97M9kAq8v7TbU-gE32T-49" vertex="1">
          <mxGeometry x="720" width="40" height="40" as="geometry" />
        </mxCell>
        <mxCell id="c97M9kAq8v7TbU-gE32T-69" value="" style="rounded=0;whiteSpace=wrap;html=1;shadow=0;strokeColor=#666666;strokeWidth=2;fontFamily=Ubuntu;fontSize=22;fontColor=#333333;fontStyle=0;fillColor=#f5f5f5;" parent="c97M9kAq8v7TbU-gE32T-49" vertex="1">
          <mxGeometry x="760" width="40" height="40" as="geometry" />
        </mxCell>
        <mxCell id="c97M9kAq8v7TbU-gE32T-70" value="" style="rounded=0;whiteSpace=wrap;html=1;shadow=0;strokeColor=#666666;strokeWidth=2;fontFamily=Ubuntu;fontSize=22;fontColor=#333333;fontStyle=0;fillColor=#f5f5f5;" parent="c97M9kAq8v7TbU-gE32T-49" vertex="1">
          <mxGeometry x="800" width="40" height="40" as="geometry" />
        </mxCell>
        <mxCell id="c97M9kAq8v7TbU-gE32T-71" value="" style="rounded=0;whiteSpace=wrap;html=1;shadow=0;strokeColor=#666666;strokeWidth=2;fontFamily=Ubuntu;fontSize=22;fontColor=#333333;fontStyle=0;fillColor=#f5f5f5;" parent="c97M9kAq8v7TbU-gE32T-49" vertex="1">
          <mxGeometry x="840" width="40" height="40" as="geometry" />
        </mxCell>
        <mxCell id="c97M9kAq8v7TbU-gE32T-72" value="" style="rounded=0;whiteSpace=wrap;html=1;shadow=0;strokeColor=#666666;strokeWidth=2;fontFamily=Ubuntu;fontSize=22;fontColor=#333333;fontStyle=0;fillColor=#f5f5f5;" parent="c97M9kAq8v7TbU-gE32T-49" vertex="1">
          <mxGeometry x="880" width="40" height="40" as="geometry" />
        </mxCell>
        <mxCell id="c97M9kAq8v7TbU-gE32T-73" value="" style="rounded=0;whiteSpace=wrap;html=1;shadow=0;strokeColor=#666666;strokeWidth=2;fontFamily=Ubuntu;fontSize=22;fontColor=#333333;fontStyle=0;fillColor=#f5f5f5;" parent="c97M9kAq8v7TbU-gE32T-49" vertex="1">
          <mxGeometry x="920" width="40" height="40" as="geometry" />
        </mxCell>
        <mxCell id="c97M9kAq8v7TbU-gE32T-74" value="" style="rounded=0;whiteSpace=wrap;html=1;shadow=0;strokeColor=#666666;strokeWidth=2;fontFamily=Ubuntu;fontSize=22;fontColor=#333333;fontStyle=0;fillColor=#f5f5f5;" parent="c97M9kAq8v7TbU-gE32T-49" vertex="1">
          <mxGeometry x="960" width="40" height="40" as="geometry" />
        </mxCell>
        <mxCell id="c97M9kAq8v7TbU-gE32T-75" value="" style="rounded=0;whiteSpace=wrap;html=1;shadow=0;strokeColor=#666666;strokeWidth=2;fontFamily=Ubuntu;fontSize=22;fontColor=#333333;fontStyle=0;fillColor=#f5f5f5;" parent="c97M9kAq8v7TbU-gE32T-49" vertex="1">
          <mxGeometry x="1000" width="40" height="40" as="geometry" />
        </mxCell>
        <mxCell id="c97M9kAq8v7TbU-gE32T-76" value="" style="rounded=0;whiteSpace=wrap;html=1;shadow=0;strokeColor=#666666;strokeWidth=2;fontFamily=Ubuntu;fontSize=22;fontColor=#333333;fontStyle=0;fillColor=#f5f5f5;" parent="c97M9kAq8v7TbU-gE32T-49" vertex="1">
          <mxGeometry x="1040" width="40" height="40" as="geometry" />
        </mxCell>
        <mxCell id="c97M9kAq8v7TbU-gE32T-77" value="" style="rounded=0;whiteSpace=wrap;html=1;shadow=0;strokeColor=#666666;strokeWidth=2;fontFamily=Ubuntu;fontSize=22;fontColor=#333333;fontStyle=0;fillColor=#f5f5f5;" parent="c97M9kAq8v7TbU-gE32T-49" vertex="1">
          <mxGeometry x="1080" width="40" height="40" as="geometry" />
        </mxCell>
        <mxCell id="c97M9kAq8v7TbU-gE32T-78" value="" style="rounded=0;whiteSpace=wrap;html=1;shadow=0;strokeColor=#666666;strokeWidth=2;fontFamily=Ubuntu;fontSize=22;fontColor=#333333;fontStyle=0;fillColor=#f5f5f5;" parent="c97M9kAq8v7TbU-gE32T-49" vertex="1">
          <mxGeometry x="1120" width="40" height="40" as="geometry" />
        </mxCell>
        <mxCell id="c97M9kAq8v7TbU-gE32T-79" value="1" style="rounded=0;whiteSpace=wrap;html=1;shadow=0;strokeColor=#82b366;strokeWidth=2;fontFamily=Ubuntu;fontSize=22;fontColor=#264653;fontStyle=0;fillColor=#d5e8d4;" parent="c97M9kAq8v7TbU-gE32T-49" vertex="1">
          <mxGeometry x="1160" width="40" height="40" as="geometry" />
        </mxCell>
        <mxCell id="c97M9kAq8v7TbU-gE32T-80" value="0" style="rounded=0;whiteSpace=wrap;html=1;shadow=0;strokeColor=#666666;strokeWidth=2;fontFamily=Ubuntu;fontSize=22;fontColor=#333333;fontStyle=0;fillColor=#f5f5f5;" parent="c97M9kAq8v7TbU-gE32T-49" vertex="1">
          <mxGeometry x="1200" width="40" height="40" as="geometry" />
        </mxCell>
        <mxCell id="c97M9kAq8v7TbU-gE32T-81" value="1" style="rounded=0;whiteSpace=wrap;html=1;shadow=0;strokeColor=#b85450;strokeWidth=2;fontFamily=Ubuntu;fontSize=22;fontColor=#264653;fontStyle=0;fillColor=#f8cecc;" parent="c97M9kAq8v7TbU-gE32T-49" vertex="1">
          <mxGeometry x="1240" width="40" height="40" as="geometry" />
        </mxCell>
        <mxCell id="c97M9kAq8v7TbU-gE32T-82" value="" style="shape=flexArrow;endArrow=classic;html=1;rounded=1;shadow=0;strokeColor=#666666;strokeWidth=2;fontFamily=Ubuntu;fontSize=22;fontColor=#264653;fontStyle=0;fillColor=#f5f5f5;" parent="1" edge="1">
          <mxGeometry width="50" height="50" relative="1" as="geometry">
            <mxPoint x="1240" y="390" as="sourcePoint" />
            <mxPoint x="1380" y="390" as="targetPoint" />
          </mxGeometry>
        </mxCell>
        <mxCell id="c97M9kAq8v7TbU-gE32T-83" value="1" style="group;fillColor=#d5e8d4;fontColor=#264653;strokeColor=#82b366;" parent="1" vertex="1" connectable="0">
          <mxGeometry x="120" y="590" width="1280" height="40" as="geometry" />
        </mxCell>
        <mxCell id="c97M9kAq8v7TbU-gE32T-84" value="" style="rounded=0;whiteSpace=wrap;html=1;shadow=0;strokeColor=#666666;strokeWidth=2;fontFamily=Ubuntu;fontSize=22;fontColor=#333333;fontStyle=0;fillColor=#f5f5f5;" parent="c97M9kAq8v7TbU-gE32T-83" vertex="1">
          <mxGeometry width="40" height="40" as="geometry" />
        </mxCell>
        <mxCell id="c97M9kAq8v7TbU-gE32T-85" value="" style="rounded=0;whiteSpace=wrap;html=1;shadow=0;strokeColor=#666666;strokeWidth=2;fontFamily=Ubuntu;fontSize=22;fontColor=#333333;fontStyle=0;fillColor=#f5f5f5;" parent="c97M9kAq8v7TbU-gE32T-83" vertex="1">
          <mxGeometry x="40" width="40" height="40" as="geometry" />
        </mxCell>
        <mxCell id="c97M9kAq8v7TbU-gE32T-86" value="" style="rounded=0;whiteSpace=wrap;html=1;shadow=0;strokeColor=#666666;strokeWidth=2;fontFamily=Ubuntu;fontSize=22;fontColor=#333333;fontStyle=0;fillColor=#f5f5f5;" parent="c97M9kAq8v7TbU-gE32T-83" vertex="1">
          <mxGeometry x="80" width="40" height="40" as="geometry" />
        </mxCell>
        <mxCell id="c97M9kAq8v7TbU-gE32T-87" value="" style="rounded=0;whiteSpace=wrap;html=1;shadow=0;strokeColor=#666666;strokeWidth=2;fontFamily=Ubuntu;fontSize=22;fontColor=#333333;fontStyle=0;fillColor=#f5f5f5;" parent="c97M9kAq8v7TbU-gE32T-83" vertex="1">
          <mxGeometry x="120" width="40" height="40" as="geometry" />
        </mxCell>
        <mxCell id="c97M9kAq8v7TbU-gE32T-88" value="" style="rounded=0;whiteSpace=wrap;html=1;shadow=0;strokeColor=#666666;strokeWidth=2;fontFamily=Ubuntu;fontSize=22;fontColor=#333333;fontStyle=0;fillColor=#f5f5f5;" parent="c97M9kAq8v7TbU-gE32T-83" vertex="1">
          <mxGeometry x="160" width="40" height="40" as="geometry" />
        </mxCell>
        <mxCell id="c97M9kAq8v7TbU-gE32T-89" value="" style="rounded=0;whiteSpace=wrap;html=1;shadow=0;strokeColor=#666666;strokeWidth=2;fontFamily=Ubuntu;fontSize=22;fontColor=#333333;fontStyle=0;fillColor=#f5f5f5;" parent="c97M9kAq8v7TbU-gE32T-83" vertex="1">
          <mxGeometry x="200" width="40" height="40" as="geometry" />
        </mxCell>
        <mxCell id="c97M9kAq8v7TbU-gE32T-90" value="" style="rounded=0;whiteSpace=wrap;html=1;shadow=0;strokeColor=#666666;strokeWidth=2;fontFamily=Ubuntu;fontSize=22;fontColor=#333333;fontStyle=0;fillColor=#f5f5f5;" parent="c97M9kAq8v7TbU-gE32T-83" vertex="1">
          <mxGeometry x="240" width="40" height="40" as="geometry" />
        </mxCell>
        <mxCell id="c97M9kAq8v7TbU-gE32T-91" value="" style="rounded=0;whiteSpace=wrap;html=1;shadow=0;strokeColor=#666666;strokeWidth=2;fontFamily=Ubuntu;fontSize=22;fontColor=#333333;fontStyle=0;fillColor=#f5f5f5;" parent="c97M9kAq8v7TbU-gE32T-83" vertex="1">
          <mxGeometry x="280" width="40" height="40" as="geometry" />
        </mxCell>
        <mxCell id="c97M9kAq8v7TbU-gE32T-92" value="" style="rounded=0;whiteSpace=wrap;html=1;shadow=0;strokeColor=#666666;strokeWidth=2;fontFamily=Ubuntu;fontSize=22;fontColor=#333333;fontStyle=0;fillColor=#f5f5f5;" parent="c97M9kAq8v7TbU-gE32T-83" vertex="1">
          <mxGeometry x="320" width="40" height="40" as="geometry" />
        </mxCell>
        <mxCell id="c97M9kAq8v7TbU-gE32T-93" value="" style="rounded=0;whiteSpace=wrap;html=1;shadow=0;strokeColor=#666666;strokeWidth=2;fontFamily=Ubuntu;fontSize=22;fontColor=#333333;fontStyle=0;fillColor=#f5f5f5;" parent="c97M9kAq8v7TbU-gE32T-83" vertex="1">
          <mxGeometry x="360" width="40" height="40" as="geometry" />
        </mxCell>
        <mxCell id="c97M9kAq8v7TbU-gE32T-94" value="" style="rounded=0;whiteSpace=wrap;html=1;shadow=0;strokeColor=#666666;strokeWidth=2;fontFamily=Ubuntu;fontSize=22;fontColor=#333333;fontStyle=0;fillColor=#f5f5f5;" parent="c97M9kAq8v7TbU-gE32T-83" vertex="1">
          <mxGeometry x="400" width="40" height="40" as="geometry" />
        </mxCell>
        <mxCell id="c97M9kAq8v7TbU-gE32T-95" value="" style="rounded=0;whiteSpace=wrap;html=1;shadow=0;strokeColor=#666666;strokeWidth=2;fontFamily=Ubuntu;fontSize=22;fontColor=#333333;fontStyle=0;fillColor=#f5f5f5;" parent="c97M9kAq8v7TbU-gE32T-83" vertex="1">
          <mxGeometry x="440" width="40" height="40" as="geometry" />
        </mxCell>
        <mxCell id="c97M9kAq8v7TbU-gE32T-96" value="" style="rounded=0;whiteSpace=wrap;html=1;shadow=0;strokeColor=#666666;strokeWidth=2;fontFamily=Ubuntu;fontSize=22;fontColor=#333333;fontStyle=0;fillColor=#f5f5f5;" parent="c97M9kAq8v7TbU-gE32T-83" vertex="1">
          <mxGeometry x="480" width="40" height="40" as="geometry" />
        </mxCell>
        <mxCell id="c97M9kAq8v7TbU-gE32T-97" value="" style="rounded=0;whiteSpace=wrap;html=1;shadow=0;strokeColor=#666666;strokeWidth=2;fontFamily=Ubuntu;fontSize=22;fontColor=#333333;fontStyle=0;fillColor=#f5f5f5;" parent="c97M9kAq8v7TbU-gE32T-83" vertex="1">
          <mxGeometry x="520" width="40" height="40" as="geometry" />
        </mxCell>
        <mxCell id="c97M9kAq8v7TbU-gE32T-98" value="" style="rounded=0;whiteSpace=wrap;html=1;shadow=0;strokeColor=#666666;strokeWidth=2;fontFamily=Ubuntu;fontSize=22;fontColor=#333333;fontStyle=0;fillColor=#f5f5f5;" parent="c97M9kAq8v7TbU-gE32T-83" vertex="1">
          <mxGeometry x="560" width="40" height="40" as="geometry" />
        </mxCell>
        <mxCell id="c97M9kAq8v7TbU-gE32T-99" value="" style="rounded=0;whiteSpace=wrap;html=1;shadow=0;strokeColor=#666666;strokeWidth=2;fontFamily=Ubuntu;fontSize=22;fontColor=#333333;fontStyle=0;fillColor=#f5f5f5;" parent="c97M9kAq8v7TbU-gE32T-83" vertex="1">
          <mxGeometry x="600" width="40" height="40" as="geometry" />
        </mxCell>
        <mxCell id="c97M9kAq8v7TbU-gE32T-100" value="" style="rounded=0;whiteSpace=wrap;html=1;shadow=0;strokeColor=#666666;strokeWidth=2;fontFamily=Ubuntu;fontSize=22;fontColor=#333333;fontStyle=0;fillColor=#f5f5f5;" parent="c97M9kAq8v7TbU-gE32T-83" vertex="1">
          <mxGeometry x="640" width="40" height="40" as="geometry" />
        </mxCell>
        <mxCell id="c97M9kAq8v7TbU-gE32T-101" value="" style="rounded=0;whiteSpace=wrap;html=1;shadow=0;strokeColor=#666666;strokeWidth=2;fontFamily=Ubuntu;fontSize=22;fontColor=#333333;fontStyle=0;fillColor=#f5f5f5;" parent="c97M9kAq8v7TbU-gE32T-83" vertex="1">
          <mxGeometry x="680" width="40" height="40" as="geometry" />
        </mxCell>
        <mxCell id="c97M9kAq8v7TbU-gE32T-102" value="" style="rounded=0;whiteSpace=wrap;html=1;shadow=0;strokeColor=#666666;strokeWidth=2;fontFamily=Ubuntu;fontSize=22;fontColor=#333333;fontStyle=0;fillColor=#f5f5f5;" parent="c97M9kAq8v7TbU-gE32T-83" vertex="1">
          <mxGeometry x="720" width="40" height="40" as="geometry" />
        </mxCell>
        <mxCell id="c97M9kAq8v7TbU-gE32T-103" value="" style="rounded=0;whiteSpace=wrap;html=1;shadow=0;strokeColor=#666666;strokeWidth=2;fontFamily=Ubuntu;fontSize=22;fontColor=#333333;fontStyle=0;fillColor=#f5f5f5;" parent="c97M9kAq8v7TbU-gE32T-83" vertex="1">
          <mxGeometry x="760" width="40" height="40" as="geometry" />
        </mxCell>
        <mxCell id="c97M9kAq8v7TbU-gE32T-104" value="" style="rounded=0;whiteSpace=wrap;html=1;shadow=0;strokeColor=#666666;strokeWidth=2;fontFamily=Ubuntu;fontSize=22;fontColor=#333333;fontStyle=0;fillColor=#f5f5f5;" parent="c97M9kAq8v7TbU-gE32T-83" vertex="1">
          <mxGeometry x="800" width="40" height="40" as="geometry" />
        </mxCell>
        <mxCell id="c97M9kAq8v7TbU-gE32T-105" value="" style="rounded=0;whiteSpace=wrap;html=1;shadow=0;strokeColor=#666666;strokeWidth=2;fontFamily=Ubuntu;fontSize=22;fontColor=#333333;fontStyle=0;fillColor=#f5f5f5;" parent="c97M9kAq8v7TbU-gE32T-83" vertex="1">
          <mxGeometry x="840" width="40" height="40" as="geometry" />
        </mxCell>
        <mxCell id="c97M9kAq8v7TbU-gE32T-106" value="" style="rounded=0;whiteSpace=wrap;html=1;shadow=0;strokeColor=#666666;strokeWidth=2;fontFamily=Ubuntu;fontSize=22;fontColor=#333333;fontStyle=0;fillColor=#f5f5f5;" parent="c97M9kAq8v7TbU-gE32T-83" vertex="1">
          <mxGeometry x="880" width="40" height="40" as="geometry" />
        </mxCell>
        <mxCell id="c97M9kAq8v7TbU-gE32T-107" value="" style="rounded=0;whiteSpace=wrap;html=1;shadow=0;strokeColor=#666666;strokeWidth=2;fontFamily=Ubuntu;fontSize=22;fontColor=#333333;fontStyle=0;fillColor=#f5f5f5;" parent="c97M9kAq8v7TbU-gE32T-83" vertex="1">
          <mxGeometry x="920" width="40" height="40" as="geometry" />
        </mxCell>
        <mxCell id="c97M9kAq8v7TbU-gE32T-108" value="" style="rounded=0;whiteSpace=wrap;html=1;shadow=0;strokeColor=#666666;strokeWidth=2;fontFamily=Ubuntu;fontSize=22;fontColor=#333333;fontStyle=0;fillColor=#f5f5f5;" parent="c97M9kAq8v7TbU-gE32T-83" vertex="1">
          <mxGeometry x="960" width="40" height="40" as="geometry" />
        </mxCell>
        <mxCell id="c97M9kAq8v7TbU-gE32T-109" value="" style="rounded=0;whiteSpace=wrap;html=1;shadow=0;strokeColor=#666666;strokeWidth=2;fontFamily=Ubuntu;fontSize=22;fontColor=#333333;fontStyle=0;fillColor=#f5f5f5;" parent="c97M9kAq8v7TbU-gE32T-83" vertex="1">
          <mxGeometry x="1000" width="40" height="40" as="geometry" />
        </mxCell>
        <mxCell id="c97M9kAq8v7TbU-gE32T-110" value="" style="rounded=0;whiteSpace=wrap;html=1;shadow=0;strokeColor=#666666;strokeWidth=2;fontFamily=Ubuntu;fontSize=22;fontColor=#333333;fontStyle=0;fillColor=#f5f5f5;" parent="c97M9kAq8v7TbU-gE32T-83" vertex="1">
          <mxGeometry x="1040" width="40" height="40" as="geometry" />
        </mxCell>
        <mxCell id="c97M9kAq8v7TbU-gE32T-111" value="" style="rounded=0;whiteSpace=wrap;html=1;shadow=0;strokeColor=#666666;strokeWidth=2;fontFamily=Ubuntu;fontSize=22;fontColor=#333333;fontStyle=0;fillColor=#f5f5f5;" parent="c97M9kAq8v7TbU-gE32T-83" vertex="1">
          <mxGeometry x="1080" width="40" height="40" as="geometry" />
        </mxCell>
        <mxCell id="c97M9kAq8v7TbU-gE32T-112" value="" style="rounded=0;whiteSpace=wrap;html=1;shadow=0;strokeColor=#666666;strokeWidth=2;fontFamily=Ubuntu;fontSize=22;fontColor=#333333;fontStyle=0;fillColor=#f5f5f5;" parent="c97M9kAq8v7TbU-gE32T-83" vertex="1">
          <mxGeometry x="1120" width="40" height="40" as="geometry" />
        </mxCell>
        <mxCell id="c97M9kAq8v7TbU-gE32T-113" value="" style="rounded=0;whiteSpace=wrap;html=1;shadow=0;strokeColor=#666666;strokeWidth=2;fontFamily=Ubuntu;fontSize=22;fontColor=#333333;fontStyle=0;fillColor=#f5f5f5;" parent="c97M9kAq8v7TbU-gE32T-83" vertex="1">
          <mxGeometry x="1160" width="40" height="40" as="geometry" />
        </mxCell>
        <mxCell id="c97M9kAq8v7TbU-gE32T-114" value="1" style="rounded=0;whiteSpace=wrap;html=1;shadow=0;strokeColor=#82b366;strokeWidth=2;fontFamily=Ubuntu;fontSize=22;fontColor=#264653;fontStyle=0;fillColor=#d5e8d4;" parent="c97M9kAq8v7TbU-gE32T-83" vertex="1">
          <mxGeometry x="1200" width="40" height="40" as="geometry" />
        </mxCell>
        <mxCell id="c97M9kAq8v7TbU-gE32T-115" value="0" style="rounded=0;whiteSpace=wrap;html=1;shadow=0;strokeColor=#b85450;strokeWidth=2;fontFamily=Ubuntu;fontSize=22;fontColor=#264653;fontStyle=0;fillColor=#f8cecc;" parent="c97M9kAq8v7TbU-gE32T-83" vertex="1">
          <mxGeometry x="1240" width="40" height="40" as="geometry" />
        </mxCell>
        <mxCell id="c97M9kAq8v7TbU-gE32T-116" value="" style="shape=flexArrow;endArrow=classic;html=1;rounded=1;shadow=0;strokeColor=#666666;strokeWidth=2;fontFamily=Ubuntu;fontSize=22;fontColor=#264653;fontStyle=0;fillColor=#f5f5f5;" parent="1" edge="1">
          <mxGeometry width="50" height="50" relative="1" as="geometry">
            <mxPoint x="1240" y="540" as="sourcePoint" />
            <mxPoint x="1380" y="540" as="targetPoint" />
          </mxGeometry>
        </mxCell>
        <mxCell id="c97M9kAq8v7TbU-gE32T-117" value="1" style="group;fillColor=#d5e8d4;fontColor=#264653;strokeColor=#82b366;" parent="1" vertex="1" connectable="0">
          <mxGeometry x="120" y="737" width="1280" height="40" as="geometry" />
        </mxCell>
        <mxCell id="c97M9kAq8v7TbU-gE32T-118" value="" style="rounded=0;whiteSpace=wrap;html=1;shadow=0;strokeColor=#666666;strokeWidth=2;fontFamily=Ubuntu;fontSize=22;fontColor=#333333;fontStyle=0;fillColor=#f5f5f5;" parent="c97M9kAq8v7TbU-gE32T-117" vertex="1">
          <mxGeometry width="40" height="40" as="geometry" />
        </mxCell>
        <mxCell id="c97M9kAq8v7TbU-gE32T-119" value="" style="rounded=0;whiteSpace=wrap;html=1;shadow=0;strokeColor=#666666;strokeWidth=2;fontFamily=Ubuntu;fontSize=22;fontColor=#333333;fontStyle=0;fillColor=#f5f5f5;" parent="c97M9kAq8v7TbU-gE32T-117" vertex="1">
          <mxGeometry x="40" width="40" height="40" as="geometry" />
        </mxCell>
        <mxCell id="c97M9kAq8v7TbU-gE32T-120" value="" style="rounded=0;whiteSpace=wrap;html=1;shadow=0;strokeColor=#666666;strokeWidth=2;fontFamily=Ubuntu;fontSize=22;fontColor=#333333;fontStyle=0;fillColor=#f5f5f5;" parent="c97M9kAq8v7TbU-gE32T-117" vertex="1">
          <mxGeometry x="80" width="40" height="40" as="geometry" />
        </mxCell>
        <mxCell id="c97M9kAq8v7TbU-gE32T-121" value="" style="rounded=0;whiteSpace=wrap;html=1;shadow=0;strokeColor=#666666;strokeWidth=2;fontFamily=Ubuntu;fontSize=22;fontColor=#333333;fontStyle=0;fillColor=#f5f5f5;" parent="c97M9kAq8v7TbU-gE32T-117" vertex="1">
          <mxGeometry x="120" width="40" height="40" as="geometry" />
        </mxCell>
        <mxCell id="c97M9kAq8v7TbU-gE32T-122" value="" style="rounded=0;whiteSpace=wrap;html=1;shadow=0;strokeColor=#666666;strokeWidth=2;fontFamily=Ubuntu;fontSize=22;fontColor=#333333;fontStyle=0;fillColor=#f5f5f5;" parent="c97M9kAq8v7TbU-gE32T-117" vertex="1">
          <mxGeometry x="160" width="40" height="40" as="geometry" />
        </mxCell>
        <mxCell id="c97M9kAq8v7TbU-gE32T-123" value="" style="rounded=0;whiteSpace=wrap;html=1;shadow=0;strokeColor=#666666;strokeWidth=2;fontFamily=Ubuntu;fontSize=22;fontColor=#333333;fontStyle=0;fillColor=#f5f5f5;" parent="c97M9kAq8v7TbU-gE32T-117" vertex="1">
          <mxGeometry x="200" width="40" height="40" as="geometry" />
        </mxCell>
        <mxCell id="c97M9kAq8v7TbU-gE32T-124" value="" style="rounded=0;whiteSpace=wrap;html=1;shadow=0;strokeColor=#666666;strokeWidth=2;fontFamily=Ubuntu;fontSize=22;fontColor=#333333;fontStyle=0;fillColor=#f5f5f5;" parent="c97M9kAq8v7TbU-gE32T-117" vertex="1">
          <mxGeometry x="240" width="40" height="40" as="geometry" />
        </mxCell>
        <mxCell id="c97M9kAq8v7TbU-gE32T-125" value="" style="rounded=0;whiteSpace=wrap;html=1;shadow=0;strokeColor=#666666;strokeWidth=2;fontFamily=Ubuntu;fontSize=22;fontColor=#333333;fontStyle=0;fillColor=#f5f5f5;" parent="c97M9kAq8v7TbU-gE32T-117" vertex="1">
          <mxGeometry x="280" width="40" height="40" as="geometry" />
        </mxCell>
        <mxCell id="c97M9kAq8v7TbU-gE32T-126" value="" style="rounded=0;whiteSpace=wrap;html=1;shadow=0;strokeColor=#666666;strokeWidth=2;fontFamily=Ubuntu;fontSize=22;fontColor=#333333;fontStyle=0;fillColor=#f5f5f5;" parent="c97M9kAq8v7TbU-gE32T-117" vertex="1">
          <mxGeometry x="320" width="40" height="40" as="geometry" />
        </mxCell>
        <mxCell id="c97M9kAq8v7TbU-gE32T-127" value="" style="rounded=0;whiteSpace=wrap;html=1;shadow=0;strokeColor=#666666;strokeWidth=2;fontFamily=Ubuntu;fontSize=22;fontColor=#333333;fontStyle=0;fillColor=#f5f5f5;" parent="c97M9kAq8v7TbU-gE32T-117" vertex="1">
          <mxGeometry x="360" width="40" height="40" as="geometry" />
        </mxCell>
        <mxCell id="c97M9kAq8v7TbU-gE32T-128" value="" style="rounded=0;whiteSpace=wrap;html=1;shadow=0;strokeColor=#666666;strokeWidth=2;fontFamily=Ubuntu;fontSize=22;fontColor=#333333;fontStyle=0;fillColor=#f5f5f5;" parent="c97M9kAq8v7TbU-gE32T-117" vertex="1">
          <mxGeometry x="400" width="40" height="40" as="geometry" />
        </mxCell>
        <mxCell id="c97M9kAq8v7TbU-gE32T-129" value="" style="rounded=0;whiteSpace=wrap;html=1;shadow=0;strokeColor=#666666;strokeWidth=2;fontFamily=Ubuntu;fontSize=22;fontColor=#333333;fontStyle=0;fillColor=#f5f5f5;" parent="c97M9kAq8v7TbU-gE32T-117" vertex="1">
          <mxGeometry x="440" width="40" height="40" as="geometry" />
        </mxCell>
        <mxCell id="c97M9kAq8v7TbU-gE32T-130" value="" style="rounded=0;whiteSpace=wrap;html=1;shadow=0;strokeColor=#666666;strokeWidth=2;fontFamily=Ubuntu;fontSize=22;fontColor=#333333;fontStyle=0;fillColor=#f5f5f5;" parent="c97M9kAq8v7TbU-gE32T-117" vertex="1">
          <mxGeometry x="480" width="40" height="40" as="geometry" />
        </mxCell>
        <mxCell id="c97M9kAq8v7TbU-gE32T-131" value="" style="rounded=0;whiteSpace=wrap;html=1;shadow=0;strokeColor=#666666;strokeWidth=2;fontFamily=Ubuntu;fontSize=22;fontColor=#333333;fontStyle=0;fillColor=#f5f5f5;" parent="c97M9kAq8v7TbU-gE32T-117" vertex="1">
          <mxGeometry x="520" width="40" height="40" as="geometry" />
        </mxCell>
        <mxCell id="c97M9kAq8v7TbU-gE32T-132" value="" style="rounded=0;whiteSpace=wrap;html=1;shadow=0;strokeColor=#666666;strokeWidth=2;fontFamily=Ubuntu;fontSize=22;fontColor=#333333;fontStyle=0;fillColor=#f5f5f5;" parent="c97M9kAq8v7TbU-gE32T-117" vertex="1">
          <mxGeometry x="560" width="40" height="40" as="geometry" />
        </mxCell>
        <mxCell id="c97M9kAq8v7TbU-gE32T-133" value="" style="rounded=0;whiteSpace=wrap;html=1;shadow=0;strokeColor=#666666;strokeWidth=2;fontFamily=Ubuntu;fontSize=22;fontColor=#333333;fontStyle=0;fillColor=#f5f5f5;" parent="c97M9kAq8v7TbU-gE32T-117" vertex="1">
          <mxGeometry x="600" width="40" height="40" as="geometry" />
        </mxCell>
        <mxCell id="c97M9kAq8v7TbU-gE32T-134" value="" style="rounded=0;whiteSpace=wrap;html=1;shadow=0;strokeColor=#666666;strokeWidth=2;fontFamily=Ubuntu;fontSize=22;fontColor=#333333;fontStyle=0;fillColor=#f5f5f5;" parent="c97M9kAq8v7TbU-gE32T-117" vertex="1">
          <mxGeometry x="640" width="40" height="40" as="geometry" />
        </mxCell>
        <mxCell id="c97M9kAq8v7TbU-gE32T-135" value="" style="rounded=0;whiteSpace=wrap;html=1;shadow=0;strokeColor=#666666;strokeWidth=2;fontFamily=Ubuntu;fontSize=22;fontColor=#333333;fontStyle=0;fillColor=#f5f5f5;" parent="c97M9kAq8v7TbU-gE32T-117" vertex="1">
          <mxGeometry x="680" width="40" height="40" as="geometry" />
        </mxCell>
        <mxCell id="c97M9kAq8v7TbU-gE32T-136" value="" style="rounded=0;whiteSpace=wrap;html=1;shadow=0;strokeColor=#666666;strokeWidth=2;fontFamily=Ubuntu;fontSize=22;fontColor=#333333;fontStyle=0;fillColor=#f5f5f5;" parent="c97M9kAq8v7TbU-gE32T-117" vertex="1">
          <mxGeometry x="720" width="40" height="40" as="geometry" />
        </mxCell>
        <mxCell id="c97M9kAq8v7TbU-gE32T-137" value="" style="rounded=0;whiteSpace=wrap;html=1;shadow=0;strokeColor=#666666;strokeWidth=2;fontFamily=Ubuntu;fontSize=22;fontColor=#333333;fontStyle=0;fillColor=#f5f5f5;" parent="c97M9kAq8v7TbU-gE32T-117" vertex="1">
          <mxGeometry x="760" width="40" height="40" as="geometry" />
        </mxCell>
        <mxCell id="c97M9kAq8v7TbU-gE32T-138" value="" style="rounded=0;whiteSpace=wrap;html=1;shadow=0;strokeColor=#666666;strokeWidth=2;fontFamily=Ubuntu;fontSize=22;fontColor=#333333;fontStyle=0;fillColor=#f5f5f5;" parent="c97M9kAq8v7TbU-gE32T-117" vertex="1">
          <mxGeometry x="800" width="40" height="40" as="geometry" />
        </mxCell>
        <mxCell id="c97M9kAq8v7TbU-gE32T-139" value="" style="rounded=0;whiteSpace=wrap;html=1;shadow=0;strokeColor=#666666;strokeWidth=2;fontFamily=Ubuntu;fontSize=22;fontColor=#333333;fontStyle=0;fillColor=#f5f5f5;" parent="c97M9kAq8v7TbU-gE32T-117" vertex="1">
          <mxGeometry x="840" width="40" height="40" as="geometry" />
        </mxCell>
        <mxCell id="c97M9kAq8v7TbU-gE32T-140" value="" style="rounded=0;whiteSpace=wrap;html=1;shadow=0;strokeColor=#666666;strokeWidth=2;fontFamily=Ubuntu;fontSize=22;fontColor=#333333;fontStyle=0;fillColor=#f5f5f5;" parent="c97M9kAq8v7TbU-gE32T-117" vertex="1">
          <mxGeometry x="880" width="40" height="40" as="geometry" />
        </mxCell>
        <mxCell id="c97M9kAq8v7TbU-gE32T-141" value="" style="rounded=0;whiteSpace=wrap;html=1;shadow=0;strokeColor=#666666;strokeWidth=2;fontFamily=Ubuntu;fontSize=22;fontColor=#333333;fontStyle=0;fillColor=#f5f5f5;" parent="c97M9kAq8v7TbU-gE32T-117" vertex="1">
          <mxGeometry x="920" width="40" height="40" as="geometry" />
        </mxCell>
        <mxCell id="c97M9kAq8v7TbU-gE32T-142" value="" style="rounded=0;whiteSpace=wrap;html=1;shadow=0;strokeColor=#666666;strokeWidth=2;fontFamily=Ubuntu;fontSize=22;fontColor=#333333;fontStyle=0;fillColor=#f5f5f5;" parent="c97M9kAq8v7TbU-gE32T-117" vertex="1">
          <mxGeometry x="960" width="40" height="40" as="geometry" />
        </mxCell>
        <mxCell id="c97M9kAq8v7TbU-gE32T-143" value="" style="rounded=0;whiteSpace=wrap;html=1;shadow=0;strokeColor=#666666;strokeWidth=2;fontFamily=Ubuntu;fontSize=22;fontColor=#333333;fontStyle=0;fillColor=#f5f5f5;" parent="c97M9kAq8v7TbU-gE32T-117" vertex="1">
          <mxGeometry x="1000" width="40" height="40" as="geometry" />
        </mxCell>
        <mxCell id="c97M9kAq8v7TbU-gE32T-144" value="" style="rounded=0;whiteSpace=wrap;html=1;shadow=0;strokeColor=#666666;strokeWidth=2;fontFamily=Ubuntu;fontSize=22;fontColor=#333333;fontStyle=0;fillColor=#f5f5f5;" parent="c97M9kAq8v7TbU-gE32T-117" vertex="1">
          <mxGeometry x="1040" width="40" height="40" as="geometry" />
        </mxCell>
        <mxCell id="c97M9kAq8v7TbU-gE32T-145" value="" style="rounded=0;whiteSpace=wrap;html=1;shadow=0;strokeColor=#666666;strokeWidth=2;fontFamily=Ubuntu;fontSize=22;fontColor=#333333;fontStyle=0;fillColor=#f5f5f5;" parent="c97M9kAq8v7TbU-gE32T-117" vertex="1">
          <mxGeometry x="1080" width="40" height="40" as="geometry" />
        </mxCell>
        <mxCell id="c97M9kAq8v7TbU-gE32T-146" value="" style="rounded=0;whiteSpace=wrap;html=1;shadow=0;strokeColor=#666666;strokeWidth=2;fontFamily=Ubuntu;fontSize=22;fontColor=#333333;fontStyle=0;fillColor=#f5f5f5;" parent="c97M9kAq8v7TbU-gE32T-117" vertex="1">
          <mxGeometry x="1120" width="40" height="40" as="geometry" />
        </mxCell>
        <mxCell id="c97M9kAq8v7TbU-gE32T-147" value="" style="rounded=0;whiteSpace=wrap;html=1;shadow=0;strokeColor=#666666;strokeWidth=2;fontFamily=Ubuntu;fontSize=22;fontColor=#333333;fontStyle=0;fillColor=#f5f5f5;" parent="c97M9kAq8v7TbU-gE32T-117" vertex="1">
          <mxGeometry x="1160" width="40" height="40" as="geometry" />
        </mxCell>
        <mxCell id="c97M9kAq8v7TbU-gE32T-148" value="" style="rounded=0;whiteSpace=wrap;html=1;shadow=0;strokeColor=#666666;strokeWidth=2;fontFamily=Ubuntu;fontSize=22;fontColor=#333333;fontStyle=0;fillColor=#f5f5f5;" parent="c97M9kAq8v7TbU-gE32T-117" vertex="1">
          <mxGeometry x="1200" width="40" height="40" as="geometry" />
        </mxCell>
        <mxCell id="c97M9kAq8v7TbU-gE32T-149" value="1" style="rounded=0;whiteSpace=wrap;html=1;shadow=0;strokeColor=#b85450;strokeWidth=2;fontFamily=Ubuntu;fontSize=22;fontColor=#264653;fontStyle=0;fillColor=#f8cecc;" parent="c97M9kAq8v7TbU-gE32T-117" vertex="1">
          <mxGeometry x="1240" width="40" height="40" as="geometry" />
        </mxCell>
        <mxCell id="c97M9kAq8v7TbU-gE32T-150" value="" style="shape=flexArrow;endArrow=classic;html=1;rounded=1;shadow=0;strokeColor=#666666;strokeWidth=2;fontFamily=Ubuntu;fontSize=22;fontColor=#264653;fontStyle=0;fillColor=#f5f5f5;" parent="1" edge="1">
          <mxGeometry width="50" height="50" relative="1" as="geometry">
            <mxPoint x="1240" y="690" as="sourcePoint" />
            <mxPoint x="1380" y="690" as="targetPoint" />
          </mxGeometry>
        </mxCell>
        <mxCell id="xe0oc7wJLhUY0iSv4KW0-1" value="n = 0b1011" style="text;html=1;align=center;verticalAlign=middle;whiteSpace=wrap;rounded=0;fontFamily=Ubuntu;fontSize=22;fontColor=#264653;fontStyle=0;" vertex="1" parent="1">
          <mxGeometry x="1250" y="260" width="130" height="30" as="geometry" />
        </mxCell>
      </root>
    </mxGraphModel>
  </diagram>
</mxfile>
